<svg 
	width="200"
	height="200"
	xmlns="http://www.w3.org/2000/svg">
	
	<path
		stroke="cornflowerblue"
		stroke-width="2"
		fill="transparent"
		d="M 10 10 C 20 20, 40 20, 50 10"
	/>

	<circle 
		cx="10" 
		cy="10" 
		r="1" 
		fill="red" 
	/>

	<circle 
		cx="50" 
		cy="10" 
		r="1" 
		fill="red" 
	/>

	<line
		x1="10" y1="10"
		x2="20" y2="20"
		stroke="red" 
		stroke-opacity=".6"
		stroke-width="1" />

	<circle 
		cx="40" 
		cy="20" 
		r="1" 
		fill="red" 
	/>

	<circle 
		cx="20" 
		cy="20" 
		r="1" 
		fill="red" 
	/>
	
	<line
		x1="50" y1="10"
		x2="40" y2="20"
		stroke="red" 
		stroke-opacity=".6"
		stroke-width="1" />

	<path 
		stroke="cornflowerblue"
		stroke-width="2"
		fill="transparent"
		d="M 70 10 C 70 20, 110 20, 110 10"
	/>

	<circle 
		cx="70" 
		cy="10" 
		r="1" 
		fill="red" 
	/>

	<circle 
		cx="70" 
		cy="20" 
		r="1" 
		fill="red" 
	/>

	<line
		x1="70" y1="10"
		x2="70" y2="20"
		stroke="red" 
		stroke-opacity=".6"
		stroke-width="1" />

	<circle 
		cx="110" 
		cy="10" 
		r="1" 
		fill="red" 
	/>

	<circle 
		cx="110" 
		cy="20" 
		r="1" 
		fill="red" 
	/>
	
	<line
		x1="110" y1="10"
		x2="110" y2="20"
		stroke="red" 
		stroke-opacity=".6"
		stroke-width="1" />

	<path 
		stroke="cornflowerblue"
		stroke-width="2"
		fill="transparent"
		d="M 130 10 C 120 20, 180 20, 170 10"
	/>

	<circle 
		cx="130" 
		cy="10" 
		r="1" 
		fill="red" 
	/>

	<circle 
		cx="120" 
		cy="20" 
		r="1" 
		fill="red" 
	/>

	<line
		x1="130" y1="10"
		x2="120" y2="20"
		stroke="red" 
		stroke-opacity=".6"
		stroke-width="1" />

	<circle 
		cx="170" 
		cy="10" 
		r="1" 
		fill="red" 
	/>

	<circle 
		cx="180" 
		cy="20" 
		r="1" 
		fill="red" 
	/>

	<line
		x1="170" y1="10"
		x2="180" y2="20"
		stroke="red" 
		stroke-opacity=".6"
		stroke-width="1" />

	<path 
		stroke="greenyellow"
		fill="transparent"
		d="M 10 60 C 20 80, 40 80, 50 60"
	/>

	<path 
		stroke="greenyellow"
		fill="transparent"
		d="M 70 60 C 70 80, 110 80, 110 60"
	/>

	<path 
		stroke="greenyellow"
		fill="transparent"
		d="M 130 60 C 120 80, 180 80, 170 60"
	/>

	<path 
		stroke="orchid"
		fill="transparent"
		d="M 10 110 C 20 140, 40 140, 50 110"
	/>

	<path 
		stroke="orchid"
		fill="transparent"
		d="M 70 110 C 70 140, 110 140, 110 110"
	/>

	<path 
		stroke="orchid"
		fill="transparent"
		d="M 130 110 C 120 140, 180 140, 170 110"
	/>
</svg>